<svg xmlns="http://www.w3.org/2000/svg" width="2250" height="250" viewBox="0 0 2250 250"><defs><linearGradient id="g" x1="0" y1="0" x2="1" y2="1"><stop offset="0" stop-color="#ffe000"/><stop offset="1" stop-color="#7a6a00"/></linearGradient></defs><rect width="2250" height="250" fill="url(#g)"/><circle cx="2094" cy="217" r="72" fill="#fff6a8" opacity="0.069"/><circle cx="2184" cy="44" r="39" fill="#fff6a8" opacity="0.125"/><circle cx="1404" cy="140" r="41" fill="#fff6a8" opacity="0.111"/><circle cx="976" cy="106" r="42" fill="#fff6a8" opacity="0.083"/><circle cx="789" cy="115" r="65" fill="#fff6a8" opacity="0.108"/><circle cx="648" cy="218" r="43" fill="#fff6a8" opacity="0.073"/><circle cx="776" cy="70" r="72" fill="#fff6a8" opacity="0.106"/><circle cx="1561" cy="65" r="73" fill="#fff6a8" opacity="0.043"/><circle cx="309" cy="147" r="66" fill="#fff6a8" opacity="0.146"/><circle cx="742" cy="23" r="68" fill="#fff6a8" opacity="0.096"/><circle cx="1499" cy="62" r="40" fill="#fff6a8" opacity="0.147"/><circle cx="1886" cy="94" r="86" fill="#fff6a8" opacity="0.157"/><circle cx="125" cy="135" r="77" fill="#fff6a8" opacity="0.139"/><circle cx="2104" cy="22" r="81" fill="#fff6a8" opacity="0.115"/><circle cx="130" cy="227" r="80" fill="#fff6a8" opacity="0.061"/><circle cx="424" cy="70" r="75" fill="#fff6a8" opacity="0.061"/><circle cx="376" cy="112" r="35" fill="#fff6a8" opacity="0.166"/><circle cx="1040" cy="212" r="25" fill="#fff6a8" opacity="0.076"/><circle cx="890" cy="246" r="40" fill="#fff6a8" opacity="0.079"/><circle cx="64" cy="248" r="87" fill="#fff6a8" opacity="0.125"/><circle cx="1618" cy="215" r="38" fill="#fff6a8" opacity="0.159"/><circle cx="773" cy="79" r="88" fill="#fff6a8" opacity="0.151"/><circle cx="419" cy="97" r="74" fill="#fff6a8" opacity="0.079"/><circle cx="1111" cy="153" r="24" fill="#fff6a8" opacity="0.136"/><circle cx="1572" cy="237" r="55" fill="#fff6a8" opacity="0.102"/><circle cx="691" cy="75" r="43" fill="#fff6a8" opacity="0.116"/><rect x="1022" y="0" width="141" height="250" fill="#ffffff" opacity="0.028"/><rect x="924" y="0" width="57" height="250" fill="#ffffff" opacity="0.044"/><rect x="1321" y="0" width="149" height="250" fill="#ffffff" opacity="0.023"/><rect x="900" y="0" width="83" height="250" fill="#ffffff" opacity="0.027"/><rect x="599" y="0" width="41" height="250" fill="#ffffff" opacity="0.031"/><rect x="1355" y="0" width="79" height="250" fill="#ffffff" opacity="0.054"/><rect x="1857" y="0" width="120" height="250" fill="#ffffff" opacity="0.025"/></svg>