<svg xmlns="http://www.w3.org/2000/svg" width="2250" height="250" viewBox="0 0 2250 250"><defs><linearGradient id="g" x1="0" y1="0" x2="1" y2="1"><stop offset="0" stop-color="#0f766e"/><stop offset="1" stop-color="#032e2a"/></linearGradient></defs><rect width="2250" height="250" fill="url(#g)"/><circle cx="835" cy="71" r="49" fill="#63dccb" opacity="0.045"/><circle cx="48" cy="241" r="61" fill="#63dccb" opacity="0.059"/><circle cx="30" cy="132" r="23" fill="#63dccb" opacity="0.041"/><circle cx="419" cy="56" r="43" fill="#63dccb" opacity="0.041"/><circle cx="21" cy="121" r="47" fill="#63dccb" opacity="0.150"/><circle cx="1809" cy="204" r="29" fill="#63dccb" opacity="0.135"/><circle cx="1420" cy="88" r="66" fill="#63dccb" opacity="0.076"/><circle cx="1911" cy="20" r="30" fill="#63dccb" opacity="0.049"/><circle cx="754" cy="183" r="48" fill="#63dccb" opacity="0.152"/><circle cx="838" cy="82" r="24" fill="#63dccb" opacity="0.106"/><circle cx="467" cy="104" r="57" fill="#63dccb" opacity="0.101"/><circle cx="616" cy="236" r="56" fill="#63dccb" opacity="0.049"/><circle cx="172" cy="207" r="34" fill="#63dccb" opacity="0.088"/><circle cx="1690" cy="40" r="35" fill="#63dccb" opacity="0.135"/><circle cx="644" cy="30" r="30" fill="#63dccb" opacity="0.043"/><circle cx="922" cy="127" r="73" fill="#63dccb" opacity="0.109"/><circle cx="330" cy="245" r="81" fill="#63dccb" opacity="0.105"/><circle cx="90" cy="232" r="88" fill="#63dccb" opacity="0.089"/><circle cx="90" cy="11" r="46" fill="#63dccb" opacity="0.125"/><circle cx="137" cy="135" r="30" fill="#63dccb" opacity="0.100"/><circle cx="452" cy="7" r="65" fill="#63dccb" opacity="0.145"/><circle cx="1424" cy="24" r="72" fill="#63dccb" opacity="0.092"/><circle cx="360" cy="126" r="70" fill="#63dccb" opacity="0.076"/><circle cx="980" cy="24" r="78" fill="#63dccb" opacity="0.167"/><circle cx="1925" cy="84" r="56" fill="#63dccb" opacity="0.098"/><circle cx="249" cy="136" r="38" fill="#63dccb" opacity="0.119"/><rect x="925" y="0" width="143" height="250" fill="#ffffff" opacity="0.031"/><rect x="1242" y="0" width="89" height="250" fill="#ffffff" opacity="0.039"/><rect x="867" y="0" width="99" height="250" fill="#ffffff" opacity="0.046"/><rect x="736" y="0" width="99" height="250" fill="#ffffff" opacity="0.026"/><rect x="1787" y="0" width="142" height="250" fill="#ffffff" opacity="0.041"/><rect x="459" y="0" width="151" height="250" fill="#ffffff" opacity="0.021"/><rect x="2187" y="0" width="52" height="250" fill="#ffffff" opacity="0.031"/></svg>