<svg xmlns="http://www.w3.org/2000/svg" width="2250" height="250" viewBox="0 0 2250 250"><defs><linearGradient id="g" x1="0" y1="0" x2="1" y2="1"><stop offset="0" stop-color="#1d4ed8"/><stop offset="1" stop-color="#071b4d"/></linearGradient></defs><rect width="2250" height="250" fill="url(#g)"/><circle cx="910" cy="91" r="54" fill="#7aa5ff" opacity="0.052"/><circle cx="1167" cy="157" r="56" fill="#7aa5ff" opacity="0.073"/><circle cx="1804" cy="50" r="87" fill="#7aa5ff" opacity="0.098"/><circle cx="1042" cy="35" r="86" fill="#7aa5ff" opacity="0.138"/><circle cx="272" cy="201" r="52" fill="#7aa5ff" opacity="0.085"/><circle cx="798" cy="17" r="35" fill="#7aa5ff" opacity="0.046"/><circle cx="2092" cy="54" r="38" fill="#7aa5ff" opacity="0.103"/><circle cx="1543" cy="124" r="28" fill="#7aa5ff" opacity="0.049"/><circle cx="208" cy="85" r="73" fill="#7aa5ff" opacity="0.104"/><circle cx="1058" cy="63" r="26" fill="#7aa5ff" opacity="0.165"/><circle cx="1982" cy="93" r="34" fill="#7aa5ff" opacity="0.052"/><circle cx="1535" cy="171" r="39" fill="#7aa5ff" opacity="0.100"/><circle cx="1691" cy="230" r="27" fill="#7aa5ff" opacity="0.150"/><circle cx="837" cy="25" r="44" fill="#7aa5ff" opacity="0.049"/><circle cx="1779" cy="193" r="49" fill="#7aa5ff" opacity="0.120"/><circle cx="990" cy="221" r="88" fill="#7aa5ff" opacity="0.144"/><circle cx="1858" cy="87" r="37" fill="#7aa5ff" opacity="0.129"/><circle cx="190" cy="66" r="79" fill="#7aa5ff" opacity="0.121"/><circle cx="456" cy="202" r="45" fill="#7aa5ff" opacity="0.105"/><circle cx="2047" cy="195" r="58" fill="#7aa5ff" opacity="0.117"/><circle cx="517" cy="208" r="37" fill="#7aa5ff" opacity="0.059"/><circle cx="1589" cy="91" r="85" fill="#7aa5ff" opacity="0.119"/><circle cx="652" cy="16" r="84" fill="#7aa5ff" opacity="0.100"/><circle cx="2011" cy="36" r="39" fill="#7aa5ff" opacity="0.152"/><circle cx="1388" cy="54" r="44" fill="#7aa5ff" opacity="0.142"/><circle cx="1423" cy="217" r="22" fill="#7aa5ff" opacity="0.165"/><rect x="1671" y="0" width="152" height="250" fill="#ffffff" opacity="0.048"/><rect x="948" y="0" width="118" height="250" fill="#ffffff" opacity="0.021"/><rect x="720" y="0" width="131" height="250" fill="#ffffff" opacity="0.047"/><rect x="1924" y="0" width="115" height="250" fill="#ffffff" opacity="0.054"/><rect x="998" y="0" width="124" height="250" fill="#ffffff" opacity="0.061"/><rect x="1130" y="0" width="83" height="250" fill="#ffffff" opacity="0.041"/><rect x="1006" y="0" width="44" height="250" fill="#ffffff" opacity="0.059"/></svg>